<?xml version="1.0" standalone="no"?>
<!DOCTYPE svg PUBLIC "-//W3C//DTD SVG 20010904//EN"
 "http://www.w3.org/TR/2001/REC-SVG-20010904/DTD/svg10.dtd">
<svg version="1.0" xmlns="http://www.w3.org/2000/svg"
 width="1275.000000pt" height="368.000000pt" viewBox="0 0 1275.000000 368.000000"
 preserveAspectRatio="xMidYMid meet">

<g transform="translate(0.000000,368.000000) scale(0.100000,-0.100000)"
fill="#000000" stroke="none">
<path d="M411 3303 l-43 -4 6 -182 c3 -100 11 -375 16 -612 6 -236 13 -499 16
-582 l6 -153 98 0 97 0 6 98 c4 53 10 161 13 240 7 143 7 143 30 138 12 -3
481 -112 1041 -242 l1018 -236 165 27 c280 46 286 47 265 55 -11 4 -543 139
-1182 301 -640 161 -1163 296 -1163 299 0 3 476 180 1058 394 1118 412 1126
415 1121 421 -2 2 -72 13 -155 25 l-152 22 -1028 -312 c-566 -172 -1034 -315
-1040 -317 -7 -3 -13 48 -18 159 -3 90 -9 232 -13 316 l-6 152 -56 -2 c-31 -1
-76 -3 -100 -5z"/>
<path d="M8043 3113 c-278 -326 -1160 -1369 -1166 -1380 -7 -10 28 -13 160
-12 l168 0 483 544 483 544 502 -544 502 -545 183 0 c175 0 183 1 170 18 -16
23 -1369 1502 -1373 1502 -2 0 -52 -57 -112 -127z"/>
<path d="M3695 2548 c3 -348 8 -697 11 -776 l6 -142 120 0 121 0 -7 208 c-3
114 -8 412 -11 662 -3 250 -8 506 -11 568 l-6 112 -114 0 -115 0 6 -632z"/>
<path d="M5190 3043 c-86 -9 -258 -46 -318 -69 -158 -59 -275 -153 -328 -261
-66 -134 -14 -282 141 -400 122 -94 272 -144 488 -164 93 -9 180 -7 422 6 341
19 536 12 678 -25 78 -20 142 -54 132 -70 -8 -12 -204 -75 -329 -105 -133 -33
-131 -33 -1016 -51 -421 -9 -767 -18 -769 -20 -2 -2 3 -65 10 -141 l14 -138
515 3 c792 5 1135 16 1248 41 237 52 467 153 575 251 76 70 107 126 107 195 0
118 -88 201 -280 263 -201 66 -362 84 -780 87 -194 1 -393 8 -455 15 -198 22
-323 65 -354 122 -15 25 -14 29 8 52 50 54 230 95 496 115 80 6 446 11 848 11
l709 0 -6 28 c-3 15 -8 80 -12 145 l-6 117 -852 -2 c-468 0 -867 -3 -886 -5z"/>
<path d="M10043 3013 l-163 -3 0 -720 0 -720 23 5 c12 3 62 11 110 19 48 7 89
15 91 17 4 4 26 473 26 537 l0 32 56 0 c45 0 233 -57 1047 -321 591 -191 997
-317 1004 -312 29 21 194 226 187 232 -5 4 -330 99 -723 212 -695 198 -713
204 -645 206 719 24 1059 91 1226 241 150 135 95 331 -123 435 -121 58 -332
112 -539 137 -76 9 -1128 11 -1577 3z m1453 -244 c248 -24 447 -87 484 -151
13 -25 13 -31 0 -55 -20 -37 -89 -70 -184 -88 -139 -27 -381 -35 -1038 -35
l-648 0 0 170 0 170 638 0 c382 0 682 -4 748 -11z"/>
<path d="M360 1024 l0 -367 45 6 c26 2 48 6 50 9 2 2 7 46 10 98 3 52 8 122
11 155 l5 60 277 -3 c152 -2 356 1 452 8 173 11 440 42 513 59 l37 9 0 -228
c0 -132 4 -231 9 -235 6 -3 28 -3 50 1 l39 6 7 94 c6 77 10 94 23 94 9 0 195
-48 414 -106 l397 -106 47 38 c40 33 44 39 28 46 -11 4 -133 35 -273 68 -140
33 -256 62 -258 64 -2 1 59 6 134 9 231 11 355 48 377 110 20 57 -27 98 -149
133 -50 15 -118 18 -424 22 l-364 4 50 23 c158 73 109 185 -107 244 -165 45
-251 51 -842 51 l-558 0 0 -366z m1231 263 c118 -20 187 -44 205 -72 43 -66
-74 -113 -333 -135 -65 -5 -317 -10 -560 -10 l-443 0 0 121 0 121 523 -5 c393
-4 543 -9 608 -20z m937 -319 c30 -9 61 -22 69 -31 14 -13 13 -16 -6 -26 -39
-21 -183 -31 -458 -31 l-273 0 0 56 0 56 308 -5 c235 -3 320 -8 360 -19z"/>
<path d="M3119 1146 c-82 -29 -157 -95 -185 -162 -62 -148 74 -319 262 -332
124 -8 239 45 301 140 24 36 28 52 28 113 0 61 -4 77 -28 113 -35 54 -108 108
-171 127 -60 18 -158 19 -207 1z m164 -100 c161 -58 183 -185 46 -261 -95 -52
-206 -34 -273 45 -52 63 -26 154 58 197 67 35 110 40 169 19z"/>
<path d="M8609 1146 c-82 -29 -157 -95 -185 -162 -62 -148 74 -319 262 -332
124 -8 239 45 301 140 24 36 28 52 28 113 0 61 -4 77 -28 113 -35 54 -108 108
-171 127 -60 18 -158 19 -207 1z m164 -100 c161 -58 183 -185 46 -261 -95 -52
-206 -34 -273 45 -52 63 -26 154 58 197 67 35 110 40 169 19z"/>
<path d="M5760 996 c0 -129 -1 -136 -25 -164 -55 -65 -224 -114 -400 -116
-178 -2 -306 39 -369 117 -30 38 -31 42 -34 158 l-4 119 -50 0 -49 0 3 -148
c3 -143 4 -150 31 -191 36 -54 101 -95 202 -127 108 -35 315 -44 455 -20 150
26 245 61 296 110 l44 43 0 176 0 177 -50 0 -50 0 0 -134z"/>
<path d="M9522 1115 c-171 -31 -288 -81 -323 -138 -17 -28 -19 -52 -19 -199
l0 -168 55 0 55 0 0 141 0 141 30 28 c34 32 112 64 204 85 201 45 427 16 522
-68 57 -49 64 -73 64 -202 l0 -115 56 0 56 0 -4 148 c-3 138 -5 150 -30 193
-65 111 -231 170 -470 168 -68 0 -156 -7 -196 -14z"/>
<path d="M8150 993 c0 -71 3 -185 7 -255 l6 -128 50 0 50 0 -6 98 c-4 53 -7
168 -7 255 l0 157 -50 0 -50 0 0 -127z"/>
<path d="M10686 1099 c-169 -4 -309 -9 -311 -11 -1 -2 -5 -110 -9 -240 l-6
-238 500 0 500 0 0 50 0 50 -445 0 -445 0 0 28 c0 59 -19 56 452 63 238 4 434
8 436 8 1 1 2 24 2 51 l0 50 -445 0 -445 0 0 45 0 45 323 0 c178 0 377 3 443
6 l119 7 -3 48 -4 49 -176 -2 c-98 0 -316 -5 -486 -9z"/>
<path d="M3677 1093 c-4 -3 -7 -116 -7 -250 l0 -243 223 0 c320 1 519 14 591
39 125 44 179 102 179 194 0 91 -56 167 -161 218 -92 45 -129 49 -483 49 -185
0 -339 -3 -342 -7z m743 -97 c63 -21 130 -81 130 -117 0 -68 -83 -127 -215
-153 -39 -8 -155 -17 -260 -20 -104 -4 -216 -9 -247 -12 l-58 -6 0 167 0 167
298 -4 c249 -4 306 -7 352 -22z"/>
<path d="M6273 1085 c-148 -40 -252 -142 -253 -247 0 -75 40 -132 122 -174 92
-47 150 -54 521 -61 l347 -6 0 45 0 45 -267 6 c-148 3 -303 11 -346 17 -273
38 -348 189 -129 262 63 21 88 22 405 26 l337 3 0 43 0 43 -82 6 c-159 13
-599 7 -655 -8z"/>
<path d="M7313 1085 c-148 -40 -252 -142 -253 -247 0 -75 40 -132 122 -174 92
-47 150 -54 521 -61 l347 -6 0 45 0 45 -267 6 c-148 3 -303 11 -346 17 -273
38 -348 189 -129 262 63 21 88 22 405 26 l337 3 0 43 0 43 -82 6 c-159 13
-599 7 -655 -8z"/>
<path d="M11734 1065 c-73 -16 -110 -33 -147 -71 -62 -62 -39 -119 68 -174
l68 -35 261 -1 c187 0 270 -4 291 -13 29 -13 30 -13 7 -22 -71 -27 -193 -38
-496 -43 -175 -3 -320 -7 -322 -8 -1 -2 0 -25 3 -52 l6 -49 334 7 c357 7 398
11 511 52 87 31 132 70 132 111 0 77 -92 102 -405 114 -246 9 -307 17 -332 42
-38 38 135 57 526 57 263 0 293 2 287 16 -3 9 -6 31 -6 50 l0 34 -362 -1
c-263 0 -380 -4 -424 -14z"/>
</g>
</svg>
